<mxfile host="app.diagrams.net" modified="2023-05-01T11:36:02.526Z" agent="Mozilla/5.0 (Windows NT 10.0; Win64; x64) AppleWebKit/537.36 (KHTML, like Gecko) Chrome/112.0.0.0 Safari/537.36" etag="xZIx4Qx4wDeU62LMDpFJ" version="21.2.3" type="device">
  <diagram name="Page-1" id="-v7yo8Rj4aw5-hPIyqPp">
    <mxGraphModel dx="2645" dy="962" grid="1" gridSize="10" guides="1" tooltips="1" connect="1" arrows="1" fold="1" page="1" pageScale="1" pageWidth="1169" pageHeight="827" math="0" shadow="0">
      <root>
        <mxCell id="0" />
        <mxCell id="1" parent="0" />
        <mxCell id="eHHUXcfFpp7-pd99N148-13" value="" style="edgeStyle=orthogonalEdgeStyle;rounded=0;orthogonalLoop=1;jettySize=auto;html=1;" edge="1" parent="1" source="eHHUXcfFpp7-pd99N148-1" target="eHHUXcfFpp7-pd99N148-12">
          <mxGeometry relative="1" as="geometry" />
        </mxCell>
        <mxCell id="eHHUXcfFpp7-pd99N148-1" value="Script executed&lt;br&gt;by SABnzbd" style="strokeWidth=2;html=1;shape=mxgraph.flowchart.start_1;whiteSpace=wrap;labelBackgroundColor=none;fillColor=#FFCA28;" vertex="1" parent="1">
          <mxGeometry x="-667" y="50" width="100" height="60" as="geometry" />
        </mxCell>
        <mxCell id="eHHUXcfFpp7-pd99N148-8" value="" style="edgeStyle=orthogonalEdgeStyle;rounded=0;orthogonalLoop=1;jettySize=auto;html=1;" edge="1" parent="1" source="eHHUXcfFpp7-pd99N148-2">
          <mxGeometry relative="1" as="geometry">
            <mxPoint x="-711" y="320" as="targetPoint" />
          </mxGeometry>
        </mxCell>
        <mxCell id="eHHUXcfFpp7-pd99N148-11" value="Yes" style="edgeLabel;html=1;align=center;verticalAlign=middle;resizable=0;points=[];" vertex="1" connectable="0" parent="eHHUXcfFpp7-pd99N148-8">
          <mxGeometry x="-0.1987" y="-1" relative="1" as="geometry">
            <mxPoint as="offset" />
          </mxGeometry>
        </mxCell>
        <mxCell id="eHHUXcfFpp7-pd99N148-9" value="" style="edgeStyle=orthogonalEdgeStyle;rounded=0;orthogonalLoop=1;jettySize=auto;html=1;metaEdit=0;comic=0;movable=0;entryX=0;entryY=0.5;entryDx=0;entryDy=0;entryPerimeter=0;" edge="1" parent="1" source="eHHUXcfFpp7-pd99N148-2" target="eHHUXcfFpp7-pd99N148-15">
          <mxGeometry relative="1" as="geometry">
            <mxPoint x="509" y="310" as="targetPoint" />
          </mxGeometry>
        </mxCell>
        <mxCell id="eHHUXcfFpp7-pd99N148-10" value="No" style="edgeLabel;html=1;align=center;verticalAlign=middle;resizable=0;points=[];" vertex="1" connectable="0" parent="eHHUXcfFpp7-pd99N148-9">
          <mxGeometry x="-0.3104" relative="1" as="geometry">
            <mxPoint as="offset" />
          </mxGeometry>
        </mxCell>
        <mxCell id="eHHUXcfFpp7-pd99N148-59" value="" style="edgeStyle=orthogonalEdgeStyle;rounded=0;orthogonalLoop=1;jettySize=auto;html=1;" edge="1" parent="1" source="eHHUXcfFpp7-pd99N148-2" target="eHHUXcfFpp7-pd99N148-58">
          <mxGeometry relative="1" as="geometry" />
        </mxCell>
        <mxCell id="eHHUXcfFpp7-pd99N148-60" value="Unknown" style="edgeLabel;html=1;align=center;verticalAlign=middle;resizable=0;points=[];" vertex="1" connectable="0" parent="eHHUXcfFpp7-pd99N148-59">
          <mxGeometry x="-0.1905" y="1" relative="1" as="geometry">
            <mxPoint as="offset" />
          </mxGeometry>
        </mxCell>
        <mxCell id="eHHUXcfFpp7-pd99N148-2" value="Multiple&lt;br&gt;Media&lt;br&gt;Files?" style="strokeWidth=2;html=1;shape=mxgraph.flowchart.decision;whiteSpace=wrap;" vertex="1" parent="1">
          <mxGeometry x="-667" y="270" width="100" height="100" as="geometry" />
        </mxCell>
        <mxCell id="eHHUXcfFpp7-pd99N148-14" value="" style="edgeStyle=orthogonalEdgeStyle;rounded=0;orthogonalLoop=1;jettySize=auto;html=1;" edge="1" parent="1" source="eHHUXcfFpp7-pd99N148-12" target="eHHUXcfFpp7-pd99N148-2">
          <mxGeometry relative="1" as="geometry" />
        </mxCell>
        <mxCell id="eHHUXcfFpp7-pd99N148-12" value="Get&lt;br&gt;Directories" style="rounded=1;whiteSpace=wrap;html=1;absoluteArcSize=1;arcSize=14;strokeWidth=2;" vertex="1" parent="1">
          <mxGeometry x="-667" y="160" width="100" height="60" as="geometry" />
        </mxCell>
        <mxCell id="eHHUXcfFpp7-pd99N148-17" value="" style="edgeStyle=orthogonalEdgeStyle;rounded=0;orthogonalLoop=1;jettySize=auto;html=1;" edge="1" parent="1" source="eHHUXcfFpp7-pd99N148-15" target="eHHUXcfFpp7-pd99N148-16">
          <mxGeometry relative="1" as="geometry">
            <Array as="points">
              <mxPoint x="-400" y="320" />
              <mxPoint x="-400" y="320" />
            </Array>
          </mxGeometry>
        </mxCell>
        <mxCell id="eHHUXcfFpp7-pd99N148-21" value="No" style="edgeLabel;html=1;align=center;verticalAlign=middle;resizable=0;points=[];" vertex="1" connectable="0" parent="eHHUXcfFpp7-pd99N148-17">
          <mxGeometry x="-0.22" y="-1" relative="1" as="geometry">
            <mxPoint as="offset" />
          </mxGeometry>
        </mxCell>
        <mxCell id="eHHUXcfFpp7-pd99N148-19" value="" style="edgeStyle=orthogonalEdgeStyle;rounded=0;orthogonalLoop=1;jettySize=auto;html=1;" edge="1" parent="1" source="eHHUXcfFpp7-pd99N148-15" target="eHHUXcfFpp7-pd99N148-18">
          <mxGeometry relative="1" as="geometry">
            <Array as="points">
              <mxPoint x="-470" y="390" />
              <mxPoint x="-470" y="390" />
            </Array>
          </mxGeometry>
        </mxCell>
        <mxCell id="eHHUXcfFpp7-pd99N148-20" value="Yes" style="edgeLabel;html=1;align=center;verticalAlign=middle;resizable=0;points=[];" vertex="1" connectable="0" parent="eHHUXcfFpp7-pd99N148-19">
          <mxGeometry x="-0.28" relative="1" as="geometry">
            <mxPoint as="offset" />
          </mxGeometry>
        </mxCell>
        <mxCell id="eHHUXcfFpp7-pd99N148-15" value="Subtitles&lt;br&gt;available in Subs/?" style="strokeWidth=2;html=1;shape=mxgraph.flowchart.decision;whiteSpace=wrap;" vertex="1" parent="1">
          <mxGeometry x="-520" y="270" width="100" height="100" as="geometry" />
        </mxCell>
        <mxCell id="eHHUXcfFpp7-pd99N148-24" style="edgeStyle=orthogonalEdgeStyle;rounded=0;orthogonalLoop=1;jettySize=auto;html=1;entryX=1;entryY=0.5;entryDx=0;entryDy=0;" edge="1" parent="1" source="eHHUXcfFpp7-pd99N148-16" target="eHHUXcfFpp7-pd99N148-22">
          <mxGeometry relative="1" as="geometry">
            <Array as="points">
              <mxPoint x="-320" y="540" />
            </Array>
          </mxGeometry>
        </mxCell>
        <mxCell id="eHHUXcfFpp7-pd99N148-25" value="Yes" style="edgeLabel;html=1;align=center;verticalAlign=middle;resizable=0;points=[];" vertex="1" connectable="0" parent="eHHUXcfFpp7-pd99N148-24">
          <mxGeometry x="-0.6563" relative="1" as="geometry">
            <mxPoint as="offset" />
          </mxGeometry>
        </mxCell>
        <mxCell id="eHHUXcfFpp7-pd99N148-27" value="" style="edgeStyle=orthogonalEdgeStyle;rounded=0;orthogonalLoop=1;jettySize=auto;html=1;" edge="1" parent="1" source="eHHUXcfFpp7-pd99N148-16" target="eHHUXcfFpp7-pd99N148-26">
          <mxGeometry relative="1" as="geometry" />
        </mxCell>
        <mxCell id="eHHUXcfFpp7-pd99N148-28" value="No" style="edgeLabel;html=1;align=center;verticalAlign=middle;resizable=0;points=[];" vertex="1" connectable="0" parent="eHHUXcfFpp7-pd99N148-27">
          <mxGeometry x="-0.2358" y="-1" relative="1" as="geometry">
            <mxPoint as="offset" />
          </mxGeometry>
        </mxCell>
        <mxCell id="eHHUXcfFpp7-pd99N148-16" value="Subtitles &lt;br&gt;available in root folder?" style="strokeWidth=2;html=1;shape=mxgraph.flowchart.decision;whiteSpace=wrap;" vertex="1" parent="1">
          <mxGeometry x="-370" y="270" width="100" height="100" as="geometry" />
        </mxCell>
        <mxCell id="eHHUXcfFpp7-pd99N148-23" value="" style="edgeStyle=orthogonalEdgeStyle;rounded=0;orthogonalLoop=1;jettySize=auto;html=1;" edge="1" parent="1" source="eHHUXcfFpp7-pd99N148-18" target="eHHUXcfFpp7-pd99N148-22">
          <mxGeometry relative="1" as="geometry" />
        </mxCell>
        <mxCell id="eHHUXcfFpp7-pd99N148-18" value="Move Subs&lt;br&gt;to root folder" style="rounded=1;whiteSpace=wrap;html=1;absoluteArcSize=1;arcSize=14;strokeWidth=2;" vertex="1" parent="1">
          <mxGeometry x="-520" y="410" width="100" height="60" as="geometry" />
        </mxCell>
        <mxCell id="eHHUXcfFpp7-pd99N148-36" value="" style="edgeStyle=orthogonalEdgeStyle;rounded=0;orthogonalLoop=1;jettySize=auto;html=1;" edge="1" parent="1" source="eHHUXcfFpp7-pd99N148-22" target="eHHUXcfFpp7-pd99N148-35">
          <mxGeometry relative="1" as="geometry" />
        </mxCell>
        <mxCell id="eHHUXcfFpp7-pd99N148-22" value="Initialize&lt;br&gt;mkvmerge" style="rounded=1;whiteSpace=wrap;html=1;absoluteArcSize=1;arcSize=14;strokeWidth=2;" vertex="1" parent="1">
          <mxGeometry x="-520" y="510" width="100" height="60" as="geometry" />
        </mxCell>
        <mxCell id="eHHUXcfFpp7-pd99N148-26" value="Exit" style="strokeWidth=2;html=1;shape=mxgraph.flowchart.terminator;whiteSpace=wrap;fillColor=#d5e8d4;strokeColor=#82b366;" vertex="1" parent="1">
          <mxGeometry x="-220" y="290" width="100" height="60" as="geometry" />
        </mxCell>
        <mxCell id="eHHUXcfFpp7-pd99N148-35" value="Exit" style="strokeWidth=2;html=1;shape=mxgraph.flowchart.terminator;whiteSpace=wrap;fillColor=#d5e8d4;strokeColor=#82b366;" vertex="1" parent="1">
          <mxGeometry x="-520" y="610" width="100" height="60" as="geometry" />
        </mxCell>
        <mxCell id="eHHUXcfFpp7-pd99N148-52" value="" style="edgeStyle=orthogonalEdgeStyle;rounded=0;orthogonalLoop=1;jettySize=auto;html=1;" edge="1" parent="1" source="eHHUXcfFpp7-pd99N148-37" target="eHHUXcfFpp7-pd99N148-38">
          <mxGeometry relative="1" as="geometry" />
        </mxCell>
        <mxCell id="eHHUXcfFpp7-pd99N148-37" value="Build&lt;br&gt;Queue&lt;br&gt;" style="rounded=1;whiteSpace=wrap;html=1;absoluteArcSize=1;arcSize=14;strokeWidth=2;" vertex="1" parent="1">
          <mxGeometry x="-811" y="290" width="100" height="60" as="geometry" />
        </mxCell>
        <mxCell id="eHHUXcfFpp7-pd99N148-39" style="edgeStyle=orthogonalEdgeStyle;rounded=0;orthogonalLoop=1;jettySize=auto;html=1;entryX=0;entryY=0.5;entryDx=0;entryDy=0;entryPerimeter=0;exitX=1;exitY=0.5;exitDx=0;exitDy=0;exitPerimeter=0;" edge="1" parent="1" source="eHHUXcfFpp7-pd99N148-38" target="eHHUXcfFpp7-pd99N148-35">
          <mxGeometry relative="1" as="geometry">
            <Array as="points">
              <mxPoint x="-710" y="440" />
              <mxPoint x="-710" y="640" />
            </Array>
          </mxGeometry>
        </mxCell>
        <mxCell id="eHHUXcfFpp7-pd99N148-40" value="Yes" style="edgeLabel;html=1;align=center;verticalAlign=middle;resizable=0;points=[];" vertex="1" connectable="0" parent="eHHUXcfFpp7-pd99N148-39">
          <mxGeometry x="-0.6956" relative="1" as="geometry">
            <mxPoint x="-1" as="offset" />
          </mxGeometry>
        </mxCell>
        <mxCell id="eHHUXcfFpp7-pd99N148-53" value="" style="edgeStyle=orthogonalEdgeStyle;rounded=0;orthogonalLoop=1;jettySize=auto;html=1;" edge="1" parent="1" source="eHHUXcfFpp7-pd99N148-38" target="eHHUXcfFpp7-pd99N148-48">
          <mxGeometry relative="1" as="geometry" />
        </mxCell>
        <mxCell id="eHHUXcfFpp7-pd99N148-54" value="No" style="edgeLabel;html=1;align=center;verticalAlign=middle;resizable=0;points=[];" vertex="1" connectable="0" parent="eHHUXcfFpp7-pd99N148-53">
          <mxGeometry x="-0.225" relative="1" as="geometry">
            <mxPoint as="offset" />
          </mxGeometry>
        </mxCell>
        <mxCell id="eHHUXcfFpp7-pd99N148-38" value="Queue&lt;br&gt;empty?" style="strokeWidth=2;html=1;shape=mxgraph.flowchart.decision;whiteSpace=wrap;" vertex="1" parent="1">
          <mxGeometry x="-811" y="390" width="100" height="100" as="geometry" />
        </mxCell>
        <mxCell id="eHHUXcfFpp7-pd99N148-41" value="" style="edgeStyle=orthogonalEdgeStyle;rounded=0;orthogonalLoop=1;jettySize=auto;html=1;exitX=0;exitY=0.5;exitDx=0;exitDy=0;exitPerimeter=0;entryX=1;entryY=0.5;entryDx=0;entryDy=0;entryPerimeter=0;" edge="1" parent="1" source="eHHUXcfFpp7-pd99N148-48" target="eHHUXcfFpp7-pd99N148-45">
          <mxGeometry relative="1" as="geometry">
            <Array as="points" />
            <mxPoint x="-990" y="370" as="targetPoint" />
          </mxGeometry>
        </mxCell>
        <mxCell id="eHHUXcfFpp7-pd99N148-42" value="No" style="edgeLabel;html=1;align=center;verticalAlign=middle;resizable=0;points=[];" vertex="1" connectable="0" parent="eHHUXcfFpp7-pd99N148-41">
          <mxGeometry x="-0.22" y="-1" relative="1" as="geometry">
            <mxPoint as="offset" />
          </mxGeometry>
        </mxCell>
        <mxCell id="eHHUXcfFpp7-pd99N148-43" value="" style="edgeStyle=orthogonalEdgeStyle;rounded=0;orthogonalLoop=1;jettySize=auto;html=1;exitX=0.5;exitY=1;exitDx=0;exitDy=0;exitPerimeter=0;entryX=0.5;entryY=0;entryDx=0;entryDy=0;" edge="1" parent="1" source="eHHUXcfFpp7-pd99N148-45" target="eHHUXcfFpp7-pd99N148-50">
          <mxGeometry relative="1" as="geometry">
            <Array as="points">
              <mxPoint x="-1040" y="510" />
              <mxPoint x="-1040" y="510" />
            </Array>
          </mxGeometry>
        </mxCell>
        <mxCell id="eHHUXcfFpp7-pd99N148-44" value="Yes" style="edgeLabel;html=1;align=center;verticalAlign=middle;resizable=0;points=[];" vertex="1" connectable="0" parent="eHHUXcfFpp7-pd99N148-43">
          <mxGeometry x="-0.28" relative="1" as="geometry">
            <mxPoint as="offset" />
          </mxGeometry>
        </mxCell>
        <mxCell id="eHHUXcfFpp7-pd99N148-56" style="edgeStyle=orthogonalEdgeStyle;rounded=0;orthogonalLoop=1;jettySize=auto;html=1;exitX=0.5;exitY=0;exitDx=0;exitDy=0;exitPerimeter=0;" edge="1" parent="1" source="eHHUXcfFpp7-pd99N148-45">
          <mxGeometry relative="1" as="geometry">
            <mxPoint x="-760" y="370" as="targetPoint" />
            <Array as="points">
              <mxPoint x="-1040" y="370" />
            </Array>
          </mxGeometry>
        </mxCell>
        <mxCell id="eHHUXcfFpp7-pd99N148-57" value="No" style="edgeLabel;html=1;align=center;verticalAlign=middle;resizable=0;points=[];" vertex="1" connectable="0" parent="eHHUXcfFpp7-pd99N148-56">
          <mxGeometry x="-0.8144" y="-1" relative="1" as="geometry">
            <mxPoint x="-11" y="9" as="offset" />
          </mxGeometry>
        </mxCell>
        <mxCell id="eHHUXcfFpp7-pd99N148-45" value="Subtitles&lt;br&gt;available in Subs/?" style="strokeWidth=2;html=1;shape=mxgraph.flowchart.decision;whiteSpace=wrap;" vertex="1" parent="1">
          <mxGeometry x="-1090" y="390" width="100" height="100" as="geometry" />
        </mxCell>
        <mxCell id="eHHUXcfFpp7-pd99N148-46" style="edgeStyle=orthogonalEdgeStyle;rounded=0;orthogonalLoop=1;jettySize=auto;html=1;entryX=1;entryY=0.5;entryDx=0;entryDy=0;exitX=0.5;exitY=1;exitDx=0;exitDy=0;exitPerimeter=0;" edge="1" parent="1" source="eHHUXcfFpp7-pd99N148-48" target="eHHUXcfFpp7-pd99N148-51">
          <mxGeometry relative="1" as="geometry">
            <Array as="points">
              <mxPoint x="-900" y="660" />
            </Array>
          </mxGeometry>
        </mxCell>
        <mxCell id="eHHUXcfFpp7-pd99N148-47" value="Yes" style="edgeLabel;html=1;align=center;verticalAlign=middle;resizable=0;points=[];" vertex="1" connectable="0" parent="eHHUXcfFpp7-pd99N148-46">
          <mxGeometry x="-0.6563" relative="1" as="geometry">
            <mxPoint as="offset" />
          </mxGeometry>
        </mxCell>
        <mxCell id="eHHUXcfFpp7-pd99N148-48" value="Subtitles &lt;br&gt;available in root folder?" style="strokeWidth=2;html=1;shape=mxgraph.flowchart.decision;whiteSpace=wrap;" vertex="1" parent="1">
          <mxGeometry x="-950" y="390" width="100" height="100" as="geometry" />
        </mxCell>
        <mxCell id="eHHUXcfFpp7-pd99N148-49" value="" style="edgeStyle=orthogonalEdgeStyle;rounded=0;orthogonalLoop=1;jettySize=auto;html=1;" edge="1" parent="1" source="eHHUXcfFpp7-pd99N148-50" target="eHHUXcfFpp7-pd99N148-51">
          <mxGeometry relative="1" as="geometry" />
        </mxCell>
        <mxCell id="eHHUXcfFpp7-pd99N148-50" value="Move Subs&lt;br&gt;to root folder" style="rounded=1;whiteSpace=wrap;html=1;absoluteArcSize=1;arcSize=14;strokeWidth=2;" vertex="1" parent="1">
          <mxGeometry x="-1090" y="530" width="100" height="60" as="geometry" />
        </mxCell>
        <mxCell id="eHHUXcfFpp7-pd99N148-55" style="edgeStyle=orthogonalEdgeStyle;rounded=0;orthogonalLoop=1;jettySize=auto;html=1;entryX=0.5;entryY=1;entryDx=0;entryDy=0;entryPerimeter=0;exitX=0.5;exitY=1;exitDx=0;exitDy=0;" edge="1" parent="1" source="eHHUXcfFpp7-pd99N148-51" target="eHHUXcfFpp7-pd99N148-38">
          <mxGeometry relative="1" as="geometry">
            <Array as="points">
              <mxPoint x="-1040" y="720" />
              <mxPoint x="-761" y="720" />
            </Array>
          </mxGeometry>
        </mxCell>
        <mxCell id="eHHUXcfFpp7-pd99N148-51" value="Initialize&lt;br&gt;mkvmerge" style="rounded=1;whiteSpace=wrap;html=1;absoluteArcSize=1;arcSize=14;strokeWidth=2;" vertex="1" parent="1">
          <mxGeometry x="-1090" y="630" width="100" height="60" as="geometry" />
        </mxCell>
        <mxCell id="eHHUXcfFpp7-pd99N148-58" value="Exit" style="strokeWidth=2;html=1;shape=mxgraph.flowchart.terminator;whiteSpace=wrap;fillColor=#f8cecc;strokeColor=#b85450;" vertex="1" parent="1">
          <mxGeometry x="-667" y="430" width="100" height="60" as="geometry" />
        </mxCell>
      </root>
    </mxGraphModel>
  </diagram>
</mxfile>
